<svg id="growth-chart" xmlns="http://www.w3.org/2000/svg" width="50.182" height="50.077" viewBox="0 0 50.182 50.077">
  <path id="Path_5965" data-name="Path 5965" d="M7.3,34H1.043A.986.986,0,0,0,0,35.043V47.563a.986.986,0,0,0,1.043,1.043H7.3a.986.986,0,0,0,1.043-1.043V35.043A.986.986,0,0,0,7.3,34ZM6.26,46.519H2.087V36.087H6.26Z" transform="translate(0 1.471)" fill="#b79b66"/>
  <path id="Path_5966" data-name="Path 5966" d="M34,29h-6.26A.986.986,0,0,0,26.7,30.043V47.779a.986.986,0,0,0,1.043,1.043H34a.986.986,0,0,0,1.043-1.043V30.043A1.045,1.045,0,0,0,34,29ZM32.96,46.736H28.787V31.087H32.96Z" transform="translate(1.155 1.255)" fill="#b79b66"/>
  <path id="Path_5967" data-name="Path 5967" d="M20.6,23.1h-6.26A.986.986,0,0,0,13.3,24.143V48.034a.986.986,0,0,0,1.043,1.043H20.6a.986.986,0,0,0,1.043-1.043V24.143A.986.986,0,0,0,20.6,23.1ZM19.56,46.991H15.387v-21.8H19.56Z" transform="translate(0.576 1)" fill="#b79b66"/>
  <path id="Path_5968" data-name="Path 5968" d="M47.3,15.6h-6.26A.986.986,0,0,0,40,16.643V48.359A.986.986,0,0,0,41.043,49.4H47.3a.986.986,0,0,0,1.043-1.043V16.643A.986.986,0,0,0,47.3,15.6ZM46.26,47.316H42.087V17.687H46.26Z" transform="translate(1.731 0.675)" fill="#b79b66"/>
  <path id="Path_5969" data-name="Path 5969" d="M42.879,8.242a4.646,4.646,0,0,0,7.3-3.756A4.779,4.779,0,0,0,45.487,0,4.631,4.631,0,0,0,40.9,4.59a4.749,4.749,0,0,0,.522,2.087l-6.781,5.842a4.565,4.565,0,0,0-2.608-.835,4.7,4.7,0,0,0-3.13,1.252L20.552,7.825a5.286,5.286,0,0,0,.209-1.356,4.59,4.59,0,1,0-9.181,0,4.206,4.206,0,0,0,.626,2.3L6.781,13.876a4.643,4.643,0,0,0-2.4-.73,4.593,4.593,0,1,0,4.8,4.59,4.059,4.059,0,0,0-.73-2.4l5.321-5.112a5.023,5.023,0,0,0,2.5.73A4.577,4.577,0,0,0,19.509,9.6l8.346,5.008a4.186,4.186,0,0,0-.313,1.565,4.59,4.59,0,0,0,9.181,0A5.607,5.607,0,0,0,36.2,13.98ZM4.59,20.24a2.5,2.5,0,1,1,0-5.008,2.369,2.369,0,0,1,1.669.626h.1a2.517,2.517,0,0,1,.73,1.774,2.632,2.632,0,0,1-2.5,2.608ZM16.275,8.972a2.539,2.539,0,0,1-2.5-2.5,2.5,2.5,0,1,1,5.008,0,2.612,2.612,0,0,1-2.5,2.5ZM45.487,2.087a2.539,2.539,0,0,1,2.5,2.5,2.5,2.5,0,0,1-5.008,0A2.612,2.612,0,0,1,45.487,2.087ZM32.028,18.675a2.5,2.5,0,1,1,2.5-2.5A2.539,2.539,0,0,1,32.028,18.675Z" transform="translate(0 0)" fill="#b79b66"/>
</svg>
