<svg id="Group_38" data-name="Group 38" xmlns="http://www.w3.org/2000/svg" width="77.858" height="76.822" viewBox="0 0 77.858 76.822">
  <g id="handshake-2" transform="translate(0 0)">
    <path id="Path_5952" data-name="Path 5952" d="M77.541,117.149,64.509,100.22a1.527,1.527,0,0,0-2.029-.356l-8.414,5.351H43.093a1.513,1.513,0,0,0-.42.07l-8.508,2.449-8.828-2.415-8.578-5.455a1.526,1.526,0,0,0-2.007.329L.338,118.047a1.526,1.526,0,0,0,.192,2.116l7.555,6.5,6.778,9.134a5.39,5.39,0,0,0,3.391,9.055,5.43,5.43,0,0,0-.063.825,5.4,5.4,0,0,0,5.4,5.4l.058,0c0,.037,0,.073,0,.11a5.395,5.395,0,0,0,5.4,5.4,5.5,5.5,0,0,0,.842-.066,5.4,5.4,0,0,0,9.182,3.285l.825-.825.346.279a5.393,5.393,0,0,0,9.144-3.962,5.386,5.386,0,0,0,5.477-5.474,5.391,5.391,0,0,0,5.476-5.479A5.392,5.392,0,0,0,64.938,136l4.949-10.364,7.44-6.4A1.526,1.526,0,0,0,77.541,117.149Zm-61.27-13.977,6.168,3.922L9.021,123.442l-5.377-4.628Zm.87,34.66L19,135.97c.056-.056.116-.11.176-.16a2.337,2.337,0,0,1,1.272-.516l.04,0c.067-.005.133-.009.2-.008a2.328,2.328,0,0,1,1.67.734,2.4,2.4,0,0,1-.1,3.321l-1.805,1.805a2.342,2.342,0,0,1-3.312-3.312Zm4.79,9.5a2.341,2.341,0,0,1,0-3.312l3.61-3.61a2.367,2.367,0,0,1,2.662-.46,2.334,2.334,0,0,1,1.29,2.418,2.471,2.471,0,0,1-.7,1.411l-3.553,3.552a2.342,2.342,0,0,1-3.312,0Zm5.451,5.5a2.341,2.341,0,0,1,0-3.312l3.609-3.61a2.368,2.368,0,0,1,2.831-.371,2.33,2.33,0,0,1,1.118,2.367,2.474,2.474,0,0,1-.694,1.374l-3.552,3.552a2.342,2.342,0,0,1-3.312,0Zm6.209,4.8a2.344,2.344,0,0,1,0-3.312l1.862-1.862c.056-.056.115-.109.176-.159l0,0a2.333,2.333,0,0,1,1.038-.482l.027,0c.065-.012.132-.021.2-.027.027,0,.053,0,.081,0,.055,0,.109-.007.164-.006a2.327,2.327,0,0,1,1.67.734,2.114,2.114,0,0,1,.151.178,2.417,2.417,0,0,1-.264,3.153l-1.8,1.8A2.344,2.344,0,0,1,33.59,157.637ZM62.07,140.6a2.344,2.344,0,0,1-3.312,0,1.387,1.387,0,0,0-.1-.093l-9.817-9.92a1.527,1.527,0,0,0-2.171,2.148l9.923,10.026,0,0a2.342,2.342,0,1,1-3.312,3.312l-6.638-6.707a1.527,1.527,0,1,0-2.17,2.148l6.537,6.6a1.452,1.452,0,0,0,.107.119,2.342,2.342,0,1,1-3.313,3.312l-3.623-3.661a1.527,1.527,0,1,0-2.171,2.147l3.522,3.558a1.365,1.365,0,0,0,.108.12,2.342,2.342,0,1,1-3.312,3.312,3.38,3.38,0,0,0-.346-.276c-.1-.076-.126-.129-.076-.25s.126-.234.176-.358.1-.28.145-.422a5.5,5.5,0,0,0,.2-2.349,5.34,5.34,0,0,0-4.551-4.6,5.445,5.445,0,0,0-1.307-4.913,5.355,5.355,0,0,0-3.846-1.688H32.56a5.343,5.343,0,0,0-5.289-5.5,5.491,5.491,0,0,0-1.3.138,5.376,5.376,0,0,0-8.921-3.195l-5.9-7.952,14.119-17.2,4.5,1.231-5.877,10.37a5.4,5.4,0,0,0,2.035,7.354q.118.067.238.127l.018.009a5.425,5.425,0,0,0,.647.271,5.395,5.395,0,0,0,6.45-2.441l3.819-6.739,6.819.484L62.07,137.286A2.346,2.346,0,0,1,62.07,140.6Zm.633-7L45.669,116.568a1.353,1.353,0,0,0-.1-.093,1.528,1.528,0,0,0-.87-.35l-8.349-.592a1.552,1.552,0,0,0-1.436.77l-4.294,7.577a2.342,2.342,0,1,1-4.075-2.31l5.732-10.115,2.323-.668.046-.015,8.668-2.5H53.786L66.862,124.89Zm6.159-11.107L56.77,107.114l6.171-3.925,11.3,14.676Zm0,0" transform="translate(0.001 -84.551)" fill="#b79b66"/>
    <path id="Path_5953" data-name="Path 5953" d="M301.671,42.353a1.522,1.522,0,0,0,1.08-.447L313.18,31.478a1.527,1.527,0,1,0-2.159-2.159L300.592,39.747a1.527,1.527,0,0,0,1.079,2.607Zm0,0" transform="translate(-254.502 -24.557)" fill="#b79b66"/>
    <path id="Path_5954" data-name="Path 5954" d="M134.071,41.906a1.527,1.527,0,1,0,2.159-2.159L125.8,29.318a1.527,1.527,0,0,0-2.159,2.159Zm0,0" transform="translate(-104.461 -24.557)" fill="#b79b66"/>
    <path id="Path_5955" data-name="Path 5955" d="M247.488,52.383a1.527,1.527,0,0,0,1.527-1.527v-8.63a1.527,1.527,0,1,0-3.053,0v8.63A1.527,1.527,0,0,0,247.488,52.383Zm0,0" transform="translate(-208.558 -34.586)" fill="#b79b66"/>
    <path id="Path_5956" data-name="Path 5956" d="M246.1,2.606a1.526,1.526,0,1,0,2.338-1.8,1.526,1.526,0,0,0-2.338,1.8Zm0,0" transform="translate(-208.58 -0.5)" fill="#b79b66"/>
  </g>
</svg>
