<svg xmlns="http://www.w3.org/2000/svg" xmlns:xlink="http://www.w3.org/1999/xlink" width="296.438" height="129.945" viewBox="0 0 296.438 129.945">
  <defs>
    <clipPath id="clip-path">
      <rect id="Rectangle_2" data-name="Rectangle 2" width="296.438" height="129.945" fill="none"/>
    </clipPath>
  </defs>
  <g id="Group_4" data-name="Group 4" transform="translate(0 0)">
    <g id="Group_3" data-name="Group 3" transform="translate(0 0)" clip-path="url(#clip-path)">
      <path id="Path_3892" data-name="Path 3892" d="M189.708,62.947c-2.455,22.85-14.257,37.628-30.792,48.383-7.515,4.888-9.852,2.907-19.763,6.6-2.632-1.172-4.619-2.084-7.125-3.313-.373-.183-4.2,5.233-4.567,5.048.487-4.569,1.877-5.175,1.694-5.267-24.442-12.289-34.574-34.686-36.766-53.654C90.87,47.6,94.56,28.4,104.036,20.822,113.618,13.153,127.2,9.8,140.843,6.541c16.052,0,25.619,2.938,38.061,8,8.007,8.77,12.576,31.919,10.8,48.406" transform="translate(106.348 7.557)" fill="#b79b66"/>
      <path id="Path_3893" data-name="Path 3893" d="M132.757,129.848a1.733,1.733,0,0,1-1.31-.569l-2.459-2.67-3.4,1.259a2.161,2.161,0,0,1-.759.134,4.317,4.317,0,0,1-2.248-.8l5.123-4.651,27.822-9.584.981-2.354-20.649,4.539-5.545,1.289a28.773,28.773,0,0,0-4.595,2.914c-.884.918,5.084-3.987,14.229-2.892-3.968,1.017-17.47,10.761-17.47,10.761-1.095-1.237-1.144-5.267-3.188-8.358-5.841-8.832-14.377-21.63-15.028-27.031,4.8,2.935,8.543,2.642,7.7-6.015-.054-.539-10.927-18.91-10.591-25.382-3.757,14.289-4.106,8.479-4.882-1.211a33.293,33.293,0,0,1,2.884-16.5l2.813-5.5-2.244-9.477-1.733-1.571a6.069,6.069,0,0,1-.711-1.828c-.285-1.222-.233-1.968.858-3.5.651-.914.175-1.625,1.338-1.9l.884-.211.769-.487c3.623-2.3,17.36-9.513,22.485-12.727l1.519-.955L126,2.89A4.234,4.234,0,0,1,128.53.321,5.293,5.293,0,0,1,130.261,0c1.175,0,.744.006,1.535,1.035l1.729,2.244,2.828-.14c.226-.011.463-.011.716-.011,2.825,0,9.108.446,14.08.888,2.269.2,4.336.407,5.979.595l2.1.241,1.694-1.237a9.093,9.093,0,0,1,2.063-.287,4.119,4.119,0,0,1,2.595.83,3.73,3.73,0,0,1,1.612,2.729,3.421,3.421,0,0,1,0,.47l-.2,3.183,2.69,1.716a7.241,7.241,0,0,1,1.168.927,6.18,6.18,0,0,1,1.972,5.289l-.175,2.28,1.511,1.716a4.1,4.1,0,0,1,.683,3.53,7.354,7.354,0,0,1-1.9,3.39s-2.4.851-3.442.129c-2.112-1.459-2.4.47-2.4.47s2.354-.711,3.4,3.065a10.22,10.22,0,0,0,2.328,3.866,35.392,35.392,0,0,1,2.358,5.606l.011.032a29.874,29.874,0,0,1,1.246,6,41.167,41.167,0,0,1,.14,6.134c-.112,2.019-.315,4.06-.6,6.067l0,.028c-.36,2.334-.7,4.239-1.073,5.992-.535,2.569-1.289,5.16-2.022,7.668-.4,1.364-.808,2.772-1.181,4.168,0,0,1.39-15.9-3.371-19.994,0,19.7-4.638,21.1-8.013,29.024a42.221,42.221,0,0,0-2.522,9.806c-.968,4.636,7.565-2.578,11.1-10.255,1.33,4-7.162,22.8-10.642,27.149-4.246,5.308-8.675,7.808-14.015,9.931l-1.246.177-1.026.7c-3.332,1.274-5.864,2.328-7.97,4.218a1.84,1.84,0,0,1-1.231.474" transform="translate(111.339 0)" fill="#fff"/>
      <path id="Path_3894" data-name="Path 3894" d="M153.17,46.807a29.664,29.664,0,0,0-1.254-6.032,35.752,35.752,0,0,0-2.375-5.647l-1.42-2.69c-.119-.222-.235-.446-.341-.675-.062-.127-.116-.256-.175-.386a2.215,2.215,0,0,1,.494-2.289s2.938-2.047,3.479-4.817c.287-1.47.308-3.789-2.5-4.713.468-2.39,1.388-5.323-1.519-8.177a8.752,8.752,0,0,0-5.282-2.259s3.72-3.871,0-6.77c-1.627-1.269-3.645-.8-4.742-.556,2.416.571,2.757.948,2.9,1.815a1.723,1.723,0,0,1-.767,1.584c1.231.19,1.81.823,1.856,1.39.1,1.2-.56,1.489-1.272,1.841a2.4,2.4,0,0,0-1.157,1.925,5.929,5.929,0,0,0,0,.823s1.19.168,2.412.3c.823.086,2.864.231,3.22,1.8a1.244,1.244,0,0,1-.937,1.438s2.8-.075,2.991,1.851c.2,2.05-1.733.888-2.017,3.526a7.559,7.559,0,0,0,.047,1.254,3.872,3.872,0,0,1,2.942-.569c1.095.211,1.976.754,2.106,2.748a6.911,6.911,0,0,1-1.125,4.528,4.082,4.082,0,0,0-.127-2.474h0c-.453-1.373-1.547-2.638-3.489-1.929-2.838,1.037-5.407,5.078-9,5.981-3.754.946-6.084-1.858-8.3-4.548-2.267-2.757-8.974-1.289-11.235,3.877,0,0,9.545-.914,15.574,1.9,5.336,2.828,9.877-2.528,10.384-2.821a27.176,27.176,0,0,1,.905,5.091c.349,3.966.731,7.528.731,7.528l.043,1.575s6.759,5.237,6.871,20.533c-.11.707-.22,1.416-.334,2.125-.662,3.987-1.752,7.985-2.336,12,1.043-3.92,2.375-7.862,3.2-11.839.422-1.987.765-3.994,1.073-6.007q.436-3.026.606-6.093a40.67,40.67,0,0,0-.14-6.147" transform="translate(134.69 1.74)" fill="#00413b"/>
      <path id="Path_3895" data-name="Path 3895" d="M129.261,13.152l-.028.063s-.06.024.028-.063" transform="translate(149.269 15.194)" fill="#00413b"/>
      <path id="Path_3896" data-name="Path 3896" d="M128,38.529c-1.634.006-4.877-.511-6.386-.7-1.972-.254-5.985-.351-5.987-.642s2.175-.364,5.369-.263,4.752.573,6.948.567a49.282,49.282,0,0,0,7.614-.619c.013.726-5.537,1.651-7.558,1.66" transform="translate(133.575 42.592)" fill="#00413b"/>
      <path id="Path_3897" data-name="Path 3897" d="M133.514,35.46a9.85,9.85,0,0,1-.905,1.422,5.673,5.673,0,0,0,3.578-1.858c-.67,2.828-5.052,2.718-5.052,2.718,4.366.724,6.022,1.978,6.608,2.472a2.5,2.5,0,0,1,.856,2.379l0,.011a6.577,6.577,0,0,0-2.968-1.1c-2.761-.3-3.582.45-7.214.405-1.983-.026-4.306-.756-6.985-.446-5.132.595-6.735.192-6.735.192s2.2-.621,4.953-1.655c2.293-.862,4-1.569,5.207-1.961-.616-.274-1.28-.2-1.925-1.884-.862-2.259,2.866-5.6,2.866-5.6h0s-2.233,4.692-.774,4.72c2.759.054,4.05.1,5.918,1.44.666.476,2.573-1.256,2.573-1.256" transform="translate(132.498 35.301)" fill="#00413b"/>
      <path id="Path_3898" data-name="Path 3898" d="M123.994,28.958l.455-3.6a16.6,16.6,0,0,1,2.873-2.269c2.024-1.2,5.569-2.7,7.451-2.138,1.446.433,1.078,5.377,1.078,5.377s-.168-2.6-2.3-2.4a17.584,17.584,0,0,0-6.6,2.608,14.459,14.459,0,0,0-2.95,2.42" transform="translate(143.241 24.064)" fill="#00413b"/>
      <path id="Path_3899" data-name="Path 3899" d="M131.677,23.4c1.44.138,3.11,1.317,3.3,2.035l0,.011a8.828,8.828,0,0,0-2.08-.856,4.473,4.473,0,0,1,1.938,2.25s-.259.61-1.429.983a4.543,4.543,0,0,1-1.336.222s1.677-.881,1.325-1.8a4.354,4.354,0,0,0-2.319-1.231,4.511,4.511,0,0,1-.272,1.3,1.856,1.856,0,0,1-1.9,1.164c-1.789-.034-1.931-1.922-1.966-2.405a13.113,13.113,0,0,0-2.989,1.069s2.211-3.269,7.724-2.744" transform="translate(143.193 26.961)" fill="#00413b"/>
      <path id="Path_3900" data-name="Path 3900" d="M115.579,3.476c-.14-.744,22.641.778,22.664,1.39s-22.526-.647-22.664-1.39" transform="translate(133.519 3.785)" fill="#00413b"/>
      <path id="Path_3901" data-name="Path 3901" d="M142.514,9.438c.024.612-25.164-.543-25.3-1.287s25.279.675,25.3,1.287" transform="translate(135.404 9.174)" fill="#00413b"/>
      <path id="Path_3902" data-name="Path 3902" d="M138.441,7.887c.024.612-22-.625-22.136-1.369s22.113.756,22.136,1.369" transform="translate(134.357 7.297)" fill="#00413b"/>
      <path id="Path_3903" data-name="Path 3903" d="M114.6,1.568c-.138-.744,25.557,1.4,25.58,2.019.022.58-25.442-1.276-25.58-2.019" transform="translate(132.393 1.633)" fill="#00413b"/>
      <path id="Path_3904" data-name="Path 3904" d="M133.45,25.852h0c-1.981,10.265-2.9,12.481-4.366,14.981,0,0,3.054-9.405,1.787-13.347a11.574,11.574,0,0,0-3.754-2.556,20.4,20.4,0,0,0-8.968-2,16.859,16.859,0,0,0-6.032,1.976s3.05-4.89,8.757-4.8C130.872,20.253,133.45,25.852,133.45,25.852Z" transform="translate(129.518 23.216)" fill="#00413b"/>
      <path id="Path_3905" data-name="Path 3905" d="M114.133,67.029c1.759,2.8,5.056,5.638,11.74,10.88a9.758,9.758,0,0,0,2.433,1.744,15.243,15.243,0,0,0,8.063,2.019,14.616,14.616,0,0,0,7.382-2.487c.9-.707,1.922-1.7,1.978-2.657.052-.869.373-2.461-.06-3.076a34.355,34.355,0,0,1,2.776-7.024q1.225-2.383,2.513-4.767c.838-1.6,1.657-3.229,2.384-4.916l.5-1.287.425-1.353a21.035,21.035,0,0,0,.519-2.748,34.108,34.108,0,0,0,.194-5.5c-.166-3.644.3-5.838-.631-9.339.315,3.6-.483,5.782-.541,9.352a40.614,40.614,0,0,1-.429,5.291,23.728,23.728,0,0,1-.53,2.554l-.4,1.222-.5,1.226c-.677,1.638-1.468,3.239-2.265,4.854-.778,1.623-1.6,3.237-2.308,4.918a32.265,32.265,0,0,0-1.78,5.183,20.74,20.74,0,0,0-.377,2.086.633.633,0,0,0-.091,0,1.74,1.74,0,0,0-.785.263c-1.444.78-1.052,2.679-8.321,3.147-3.216.207-7.776-1.845-8.356-1.845a3.04,3.04,0,0,0-1.7.638l-2.007-1.058c-8.86-4.683-16.442-16.524-13.824-30.66,1.134-6.129,4.746-10.166,3.2-15.2-1.237-4.054,6.242-11.1,6.242-11.1a8.075,8.075,0,0,0-3.384,2.14c-2.856,2.733-5.33,7.308-6.72,11.061-1.737,4.681-2.108,10.1-1.916,15.291.468,12.77,5.629,19.653,6.569,21.153" transform="translate(124.207 20.082)" fill="#00413b"/>
      <path id="Path_3906" data-name="Path 3906" d="M113.043,17.511c.1-.084.155-.127.157-.127-.052.039-.106.086-.157.127" transform="translate(130.59 20.083)" fill="#00413b"/>
      <path id="Path_3907" data-name="Path 3907" d="M117.455,25.089a5.06,5.06,0,0,0-2.032.534,7.332,7.332,0,0,0-1.8,1.769c-1.013-.1-.884-.134-.884-.134a11.674,11.674,0,0,1,2.416-3.054c1.886-1.5,3.685-2.041,7.149-1.418a4.975,4.975,0,0,1,3.44,2.267,10.477,10.477,0,0,0-2.679-1.261,7.576,7.576,0,0,0-2.886-.351,6.834,6.834,0,0,1,3.354,1.013,9.258,9.258,0,0,1,2.985,2.871,6.041,6.041,0,0,1-3.435.444c.931-.22,2.332-.66,2.332-.66a5.039,5.039,0,0,0-1.858-1.476,4.893,4.893,0,0,0-1.8-.649,1.957,1.957,0,0,1-2.177,2.463,2.258,2.258,0,0,1-2.129-2.36" transform="translate(130.238 26.031)" fill="#00413b"/>
      <path id="Path_3908" data-name="Path 3908" d="M119.265,22.92a5.119,5.119,0,0,0,2.856-4,2.021,2.021,0,0,0,.789-1.6,1.926,1.926,0,0,0-.677-1.351,11.6,11.6,0,0,0-.2-1.2,1.739,1.739,0,0,0,.151-.767,2.206,2.206,0,0,0-1.373-1.819,5.664,5.664,0,0,0-1.963-1.752,9.267,9.267,0,0,0,.343-1.5,1.966,1.966,0,0,0,.556-1.4,1.919,1.919,0,0,0-.5-1.2,11.061,11.061,0,0,0-.306-1.711,1.776,1.776,0,0,0,.166-.8,2.126,2.126,0,0,0-1.16-1.7,3.941,3.941,0,0,0-5.151-1.8,4.708,4.708,0,0,0-2.823,4.457,2.08,2.08,0,0,0-.369,1.785c.181,1.263.767,1.459.767,1.459.039.147.078.3.119.446,0,0-.375.364.179,1.25.688,1.1,1.218.907,1.218.907a5.855,5.855,0,0,0,2.379,1.989,5.128,5.128,0,0,0-.675,3.013,1.974,1.974,0,0,0-.218,1.517c.228.862.685.933.685.933l.481,1.4a2.269,2.269,0,0,0,.185,1.513,2.771,2.771,0,0,0,1.392,1.369,3.472,3.472,0,0,0,3.155.56" transform="translate(126.566 0.001)" fill="#00413b"/>
      <path id="Path_3909" data-name="Path 3909" d="M99.481,8.788c-2.039.261-3.084,2.446-2.263,5.976s2.147,3.476,2.147,3.476-1.127,1.864.084,6.056c.922,3.194,2.75,3.653,2.75,3.653-9.53,14.11-5.067,31.718-4.963,32.044,1.558,4.935,1.308-3.778,3.179-12.983.563-2.761,1.228-5.528,1.858-7.966,7.136,41.93,16.164,53.74,16.164,53.74-7.6-17.132-10.44-42.012-11.472-55.922a18.159,18.159,0,0,1-.026-2.272c.252-4.851-.522-6.782-1.134-7.992a7.92,7.92,0,0,0,.149-6.037,6.131,6.131,0,0,0-2.927-3.539s1.127-1.261-.065-4.8c-.81-2.4-2.267-3.595-3.481-3.44" transform="translate(111.019 10.137)" fill="#00413b"/>
      <path id="Path_3910" data-name="Path 3910" d="M100.28,18.824c-.052-.2.931-.683,2.718-1.619,1.216-.649,2.448-1.259,3.673-1.888l3.7-1.83,3.726-1.778c1.252-.571,2.494-1.164,3.754-1.718,1.666-.748,4.246-2.056,4.6-2.05.662.013-2.632,2.013-4.218,2.843-1.216.649-2.448,1.259-3.672,1.888l-3.7,1.83-3.729,1.774c-1.25.573-2.45,1.015-3.709,1.569-1.8.81-3.11,1.123-3.147.978" transform="translate(115.843 9.175)" fill="#00413b"/>
      <path id="Path_3911" data-name="Path 3911" d="M115.612,14l-3.726,1.776-3.754,1.72c-1.259.554-2.511,1.127-3.78,1.662-2.067.892-3.164,1.084-3.1.849.088-.31.728-.636,2.729-1.644,1.224-.629,2.466-1.224,3.7-1.834l3.726-1.776,3.752-1.722c1.259-.554,2.511-1.127,3.78-1.662A29.34,29.34,0,0,1,122.56,9.95c.31.08-1.89,1.53-3.248,2.216-1.224.631-2.468,1.222-3.7,1.834" transform="translate(116.965 11.493)" fill="#00413b"/>
      <path id="Path_3912" data-name="Path 3912" d="M106.771,12.526l3.194-1.757,3.22-1.709c1.082-.554,2.155-1.123,3.246-1.66,1.16-.582,3.451-1.866,3.5-1.657A17.35,17.35,0,0,1,116.8,8.086c-1.047.619-2.112,1.2-3.168,1.8l-3.194,1.757-3.22,1.707c-1.082.554-2.157,1.123-3.248,1.66-1.9.955-3.606,1.817-3.927,1.711-.444-.147,1.644-1.282,3.558-2.392,1.047-.619,2.112-1.2,3.168-1.806" transform="translate(115.504 6.609)" fill="#00413b"/>
      <path id="Path_3913" data-name="Path 3913" d="M106.559,10.986l3.55-2.112,3.582-2.06c1.2-.668,2.4-1.353,3.614-2,1.289-.7,3.166-1.591,3.121-1.157a11.7,11.7,0,0,1-2.677,1.918c-1.162.741-2.345,1.446-3.517,2.168l-3.552,2.11L107.1,11.906c-1.2.67-7.489,3.92-7.489,3.655,0-.448,5.778-3.854,6.951-4.576" transform="translate(115.069 4.086)" fill="#00413b"/>
      <path id="Path_3914" data-name="Path 3914" d="M102.656,45.067a186.294,186.294,0,0,0,13.5,25.509c-7.67-8.67-15.216-23.513-16.625-28.085,2.084.282,2.556,1.276,3.121,2.575" transform="translate(114.985 49.088)" fill="#00413b"/>
      <path id="Path_3915" data-name="Path 3915" d="M156.407,39.089c-6.367,30.492-17.149,36.533-26.134,40.1l-3.166-2.323.905,3.2c-3.037,1.164-5.787,2.254-7.976,4.226a1.862,1.862,0,0,1-2.741-.241l-3.063-3.923a7.038,7.038,0,0,0-1.472,1.754c-1.582,2.226-4.274.183-4.274.183l2.67-3.483a16.83,16.83,0,0,1,1.735-1.959l.011-.011a22.091,22.091,0,0,1,4.065-3.114,15.617,15.617,0,0,1,4.8-1.767c3.414-.713,7.052-.739,10.6-1.461a22.8,22.8,0,0,0,5.157-1.647,20.579,20.579,0,0,0,4.528-2.892,20.473,20.473,0,0,1-4.664,2.578A22.23,22.23,0,0,1,132.26,69.6c-3.509.487-7.082.274-10.727.787a20.359,20.359,0,0,0-2.72.573,24.574,24.574,0,0,0-2.64.961,24.183,24.183,0,0,0-4.838,2.832c-.11.084-.218.172-.328.256l-1.494-4.882a14.087,14.087,0,0,1,4.2-4.334l1.39,2.4.765-3.433c3.134-1.093,6.879-.864,11.892-.728,1.6.043,3.248.056,4.9-.05l.192,1.414L134,63.872c8.545-.881,17.244-5.388,22.406-24.783" transform="translate(125.325 45.157)" fill="#00413b"/>
      <path id="Path_3916" data-name="Path 3916" d="M49.712,43.77h.97a9.062,9.062,0,0,0,2.168-.491,5.724,5.724,0,0,0,3.108-3.108H56a3.559,3.559,0,0,0,.338,1.291,4.416,4.416,0,0,0,3.83,2.308H61.45a22.572,22.572,0,0,0,7.306-1.276,26.7,26.7,0,0,0,7.091,1.276h5.537a13.327,13.327,0,0,0,1.494-5.953,36.541,36.541,0,0,0-.739-6.444l.384.183.17-.045L84.2,28.48v-.246l-1.953-1.293q-2.906-1.675-2.907-3.015l.108-.569-.384-.216a6.218,6.218,0,0,0-1.554,3.647A2.926,2.926,0,0,0,79.092,29.4a70.336,70.336,0,0,1,1.722,10.875H76.23a12.914,12.914,0,0,1-3.476-.461,9.665,9.665,0,0,0,1.386-4.953c0-.134-.006-.267-.015-.4a5.552,5.552,0,0,0-.293-1.815q-.753-2.214-2.461-2.216a3.962,3.962,0,0,0-2.323,1.032q-4.135,3.582-4.136,7.136v.153a4.115,4.115,0,0,0,.522,1.524H61.049a4.739,4.739,0,0,1-2.623-.614,3.051,3.051,0,0,1-1.192-1.554q.446-1.17.754-2L56.6,35.541q-2.214,4.736-5.614,4.737H47.359a6.985,6.985,0,0,0,.494-2.384,4.108,4.108,0,0,0-.8-2.461q-2.14-2.57-4.524-2.569h-.291q-3.569,0-11.367,7.091A6.328,6.328,0,0,1,27.24,37.91q.385-1.047.677-1.8l-1.384-.569q-2.214,4.736-5.614,4.737H19.535q-1.969-.045-3.446-2.754L15.043,24.235l-.524-.246L12.75,27.127Q13.982,41.8,13.981,45.153a22.376,22.376,0,0,1-4.19.946c-.847.056-1.373.086-1.578.086H8.028a9.975,9.975,0,0,1-2.953-.4A3.786,3.786,0,0,1,2,41.94a2.4,2.4,0,0,1,.015-.278,19.464,19.464,0,0,1,.754-3.845l-.832-.2A19.5,19.5,0,0,0,0,44.461v.494a4.693,4.693,0,0,0,.539,2.213q1.675,2.6,5.522,2.6h.785a17.62,17.62,0,0,0,5.013-.86q2.693-.8,3.4-2.185a21.01,21.01,0,0,0,.938-4.629,5.045,5.045,0,0,0,3.435,1.666l.011.011h.968a9.106,9.106,0,0,0,2.17-.491,5.593,5.593,0,0,0,3.06-2.922,3.513,3.513,0,0,0,.739,1.276A6.7,6.7,0,0,0,29.287,43.2a14.553,14.553,0,0,0-1.616,4.045l.739.108q1.167-2.153,2.261-3.907a39.5,39.5,0,0,0,4.923.323Zm20.136-9.63a2.3,2.3,0,0,1,.569-.075,1.467,1.467,0,0,1,1.261.692,3.462,3.462,0,0,1,.647,1.968,10.147,10.147,0,0,1-2.862,2.4A4.569,4.569,0,0,1,66.51,36.91q2.153-2.46,3.338-2.769M41.5,36.31a5.627,5.627,0,0,1,2.907.938,5.957,5.957,0,0,1,1.862,1.815q-2.37,1.216-10.091,1.216H33.671q5.215-3.97,7.828-3.968m15.244,9.66Q59.71,47.6,59.71,47.877V48a4.613,4.613,0,0,1-1.261,2.6h-.123a13.777,13.777,0,0,1-2.892-1.632q-1.044,1.678-1.291,1.724a16.41,16.41,0,0,1-3.093-2,5.267,5.267,0,0,1,1.386-2.722,16.48,16.48,0,0,1,3.091,1.707q.676-1.707,1.216-1.707M69.31,28.834a27.427,27.427,0,0,1-3-1.752v-.155A4.71,4.71,0,0,1,67.618,24.3a.544.544,0,0,1,.153-.063,27,27,0,0,1,2.97,1.847V26.2a5,5,0,0,1-1.263,2.584l-.123.045ZM88.875,43.77q0-4.368-1.845-16.011l1.8-3.662h.537a128.658,128.658,0,0,1,1.692,14.658,16.764,16.764,0,0,1-1.644,5.015Zm22.688,0h.847a4.357,4.357,0,0,0,1.323-.338,6.555,6.555,0,0,0,3-2.647,4.567,4.567,0,0,0,1.677,2,5.491,5.491,0,0,0,2.877.955l.03.03h3.97a20.433,20.433,0,0,0,.929-2.216,14.543,14.543,0,0,0,.685-2.8A129.185,129.185,0,0,0,125.208,24.1h-.539l-1.8,3.662q1.261,7.966,1.662,12.52h-2.877a2.824,2.824,0,0,1-2.722-1.384,13.25,13.25,0,0,1-1.054-4.754q-.3-3.369-.838-8.6h-.4l-1.632,2.815q.553,5.108.769,6.983a35.544,35.544,0,0,0,.431,3.769q-.753,1.183-3.815,1.183a4.315,4.315,0,0,1-2.246-.922.967.967,0,0,0-.078-.123q-1.183-1.723-1.183-6.4v-.108l.231-2.722-.461-.17-1.569,1.632-.032,1.584q-5.735,1.507-6.382,2.261a10.309,10.309,0,0,0-2.985,4.414l-.03.2a1.25,1.25,0,0,0-.015.185c0,.644.644,1.082,1.938,1.306a17.421,17.421,0,0,0,3.015.293,7.678,7.678,0,0,0,3.351-.647,8.17,8.17,0,0,0,1.338-1.892,6.311,6.311,0,0,0,1.308,3.369,4.289,4.289,0,0,0,2.968,1.216m-7.336-5.138a12.236,12.236,0,0,1-2.153-.2l-.877-.17a7.015,7.015,0,0,1-1.323-.369v-.062a3.8,3.8,0,0,1,1.047-.461,16.634,16.634,0,0,0,4.522-1.291,14.582,14.582,0,0,0,1.539-1.216c-.011.134-.017.3-.017.506q0,.908.108,2.8a8.38,8.38,0,0,1-2.845.461m27.035,5.138q0-4.368-1.847-16.011l1.8-3.662h.539a129.186,129.186,0,0,1,1.692,14.658A16.772,16.772,0,0,1,131.8,43.77Zm5.136-1.737a22.993,22.993,0,0,1,.539-3.584h.554v.877q.168.921,1.722.953h.431q4.306,0,5.722-1.662a37.764,37.764,0,0,0-1.785-4.752l1.308-3.03h.246q.168.352,1.093,3.231a24.4,24.4,0,0,0,2.091,5.037q.8,1.177,1.569,1.177h1.371a5.564,5.564,0,0,0,4.7-2.707c.379-.483.709-.724.985-.724s.733.539,1.4,1.616a3.818,3.818,0,0,0,3.06,1.815h4.261a6,6,0,0,1-1.907-3.907,6.614,6.614,0,0,1,1.752-3.968,6.177,6.177,0,0,1,4.491-1.83q1.907.2,5.291,3.291l-.369.476a41.133,41.133,0,0,0-6.045-.752h-.045a8.394,8.394,0,0,0-3.414.752,7.913,7.913,0,0,0,2.8,4.03,7.661,7.661,0,0,0,2.2,1.461,56.308,56.308,0,0,0,8.938-1.877l.153.17-1.569,3.213q-3.414.925-7.121,1.662c-2.595.453-10.153.769-10.153.769a5.764,5.764,0,0,1-4.444-3.429,5.759,5.759,0,0,1-2,2.276,5.892,5.892,0,0,1-2.769,1.153h-1.584a3.28,3.28,0,0,1-3.276-2.03,16.857,16.857,0,0,1-.769-1.707,4.231,4.231,0,0,1-1.323,2.306q-1.629,1.416-5.414,1.416-2.583,0-2.692-1.722m20.382,8.783q-2.169-1.232-2.955-1.785a.366.366,0,0,1-.045-.138,5.07,5.07,0,0,1,1.323-2.662l.093-.045h.108a25.76,25.76,0,0,1,3,1.86v.063a5.2,5.2,0,0,1-1.384,2.707ZM47.158,75.781q-11.318-.049-11.319-6.645V68.55a9.088,9.088,0,0,1,.983-3.4l.4.153v.785q0,4.048,4.522,5.507a20.649,20.649,0,0,0,5.414.694h9.168A6.591,6.591,0,0,0,52.7,70.583l-2.614-.431-.216-.338,1.384-2.308a11.806,11.806,0,0,0,3.539-.785,6.129,6.129,0,0,0-1.847-3.476l1.569-3.384h.231a8.264,8.264,0,0,1,2.015,5.213,5.671,5.671,0,0,1-1.338,3.047Q58.5,69.1,58.5,70.828v.015a9.745,9.745,0,0,1-3.308,4.938Zm-3.866,2.075a20.8,20.8,0,0,1,3.091,1.83v.078a5.057,5.057,0,0,1-1.261,2.647L45,82.456h-.047q-.074,0-2.953-1.662a5.1,5.1,0,0,1-1.108,1.662h-.03a31.163,31.163,0,0,1-2.968-1.722l-.078-.185A5.519,5.519,0,0,1,39.107,77.9l.093-.047a25.993,25.993,0,0,1,3,1.707,4.606,4.606,0,0,1,1.093-1.707m11.429,1.754a.383.383,0,0,1,.045.2,5.617,5.617,0,0,1-1.291,2.6l-.125.045H53.26a28.54,28.54,0,0,1-2.97-1.877v-.03A5.313,5.313,0,0,1,51.6,77.857h.078a20.3,20.3,0,0,1,3.045,1.754M93.627,58.953l1.955,1.291v.248l-1.509,3.03-.168.045-.386-.185a36.336,36.336,0,0,1,.739,6.446,13.359,13.359,0,0,1-1.491,5.953H87.476q-3.647,0-4.862-2.03a1.8,1.8,0,0,0-.369-.4q-3.291,2.215-9.136,2.431h-.616l-.011-.013a5.9,5.9,0,0,1-1.526-.3l-.416-.17a17.5,17.5,0,0,1-3.108,5.662q-1.552,1.736-2.045,1.815a6.578,6.578,0,0,1-1.6.216q-1.8-.123-6.4-2.815l.183-.677a11.061,11.061,0,0,0,3.2.614A8.694,8.694,0,0,0,68.7,75.4l.321-.752A4.734,4.734,0,0,1,66.7,70.966a12.254,12.254,0,0,1,1.246-3.108l.506.015a4.52,4.52,0,0,0,4.338,4.416h1.231a20.567,20.567,0,0,0,6.69-.94,4.807,4.807,0,0,0-3.537-1.983,5.95,5.95,0,0,0-1.17.138l-.138-.138q.569-1.584,1.278-3.138a8.33,8.33,0,0,1,3.6-.877h.692a4.033,4.033,0,0,1,3.737,1.985,3.165,3.165,0,0,1,.123.722V68.3a5.688,5.688,0,0,1-.892,2.8,4.781,4.781,0,0,0,3.416,1.185H92.2a70.44,70.44,0,0,0-1.724-10.875A2.929,2.929,0,0,1,88.89,58.8a6.208,6.208,0,0,1,1.554-3.644l.384.216-.106.569q0,1.338,2.905,3.015m7.123-2.845a129.185,129.185,0,0,1,1.692,14.658,16.791,16.791,0,0,1-1.647,5.015h-.539a123.017,123.017,0,0,0-1.845-16.013l1.8-3.66ZM149.9,60.367a27.252,27.252,0,0,1-3.093-1.767v-.138a4.814,4.814,0,0,1,1.369-2.709h.155a31.424,31.424,0,0,1,2.953,1.817v.153a5.033,5.033,0,0,1-1.276,2.6Zm-4.231,2.817a4.909,4.909,0,0,1,1.231-2.616.492.492,0,0,1,.246-.138l2.953,1.722q.786-1.72,1.185-1.722a26.855,26.855,0,0,1,3,1.815c0,.063.015.093.045.093a5.247,5.247,0,0,1-1.369,2.707h-.2l-2.8-1.662q-.921,1.662-1.291,1.662h-.047a31.159,31.159,0,0,1-2.953-1.815Zm31.794-4.231,1.953,1.291v.248l-1.506,3.03-.17.045-.384-.185a36.539,36.539,0,0,1,.739,6.446,13.334,13.334,0,0,1-1.494,5.953h-4.953l-.011-.013a5.582,5.582,0,0,1-3.112-.972,4.54,4.54,0,0,1-1.692-2,6.586,6.586,0,0,1-2.983,2.647,6.175,6.175,0,0,1-1.862.323l-.015.015h-.692l-.009,0a4.83,4.83,0,0,1-3.851-2.181l-1.616,2.185h-.722q-4.322-.061-5.923-1.494l-1.539,1.494h-7.076l-.491-1.4a4.576,4.576,0,0,1-2.584,1.4h-4.123q-3.643,0-4.86-2.03a1.8,1.8,0,0,0-.369-.4,14.474,14.474,0,0,1-5.752,2.095v.013s-2.578.28-3.022.3a18.459,18.459,0,0,1-2.963,5.2q-1.552,1.736-2.045,1.815a6.578,6.578,0,0,1-1.6.216q-1.8-.123-6.4-2.815l.185-.677a11.034,11.034,0,0,0,3.2.614,8.694,8.694,0,0,0,7.923-4.722l.321-.752a4.734,4.734,0,0,1-2.321-3.677,12.254,12.254,0,0,1,1.246-3.108l.506.015q.459,3.831,4.048,4.373a18.658,18.658,0,0,0,5.136-.9,4.807,4.807,0,0,0-3.537-1.983,5.932,5.932,0,0,0-1.17.138l-.138-.138q.569-1.584,1.276-3.138a8.337,8.337,0,0,1,3.6-.877h.694a4.037,4.037,0,0,1,3.737,1.985,3.166,3.166,0,0,1,.123.722V68.3a5.688,5.688,0,0,1-.892,2.8,4.779,4.779,0,0,0,3.414,1.185H137.6a7.277,7.277,0,0,0,3.647-1.623,13.04,13.04,0,0,0,2.153-2.608l.4.185a5.437,5.437,0,0,1-.384,1.976,11.107,11.107,0,0,1-1.093,2.069h6.66l1.015-3.524,2.063-1.968.323.168-1.108,4.522q.537.708,4.476.877l-.032-3.336,2.293-2.386.353.231v3.093a2.223,2.223,0,0,0,.985,1.522,5.733,5.733,0,0,0,2.384.8h.293c.164.009.328.015.491.015q3.062,0,3.815-1.185a35.5,35.5,0,0,1-.431-3.767q-.23-3.107-.769-8.461l1.632-2.815h.384q.54,5.476.847,9.459a15.358,15.358,0,0,0,1.054,5.369,2.821,2.821,0,0,0,2.729,1.386h4.261a70.333,70.333,0,0,0-1.722-10.875A2.929,2.929,0,0,1,172.73,58.8a6.208,6.208,0,0,1,1.554-3.644l.384.216-.108.569q0,1.338,2.907,3.015" transform="translate(0 26.735)" fill="#00413b"/>
      <path id="Path_3917" data-name="Path 3917" d="M56.678,29.244a2.664,2.664,0,0,1-.67,1.341.213.213,0,0,1-.1.03,15.766,15.766,0,0,1-1.657-1.05v-.11a2.614,2.614,0,0,1,.7-1.3h.034a10.082,10.082,0,0,1,1.692,1.084M51.52,28.16a2.731,2.731,0,0,0-.7,1.371A12.368,12.368,0,0,0,52.5,30.615h.034a2.491,2.491,0,0,0,.7-1.291v-.11a16.392,16.392,0,0,0-1.647-1.054Zm12.746-6.086a12.781,12.781,0,0,1,.142,1.785v.287c-.192,1.056-.569,1.578-1.129,1.578A11.148,11.148,0,0,1,59.495,24.5c-.483-.306-.916-.608-1.3-.9a6.628,6.628,0,0,1-1.744,2.086,2.2,2.2,0,0,1-.252.144l-.032.017-.041.015a1.516,1.516,0,0,1-1.61.05,1.031,1.031,0,0,1-.256-.194,2.439,2.439,0,0,1-.45-.726v0a2.918,2.918,0,0,1-.11-.3,4.962,4.962,0,0,1-.177-.716l-.287-2.007H53.2a3.3,3.3,0,0,1-1.5,1.657,11.168,11.168,0,0,1-2.709.7,12.059,12.059,0,0,1-2.063,4.55c-.694.871-1.276,1.308-1.754,1.308a3.316,3.316,0,0,1-.987.1,18.726,18.726,0,0,1-4.5-.888l.058-.494q.931.078,1.392.078h.03c.185,0,.362.009.528.009a7.169,7.169,0,0,0,4.224-1.063,7.229,7.229,0,0,0,2.369-3.675c-.974-.116-1.487-.373-1.547-.769a2.6,2.6,0,0,1,.6-1.3h.034a2.582,2.582,0,0,0,1.644.526h.041a8.113,8.113,0,0,0,3.4-.659c.427-.293.638-.552.638-.778a7.517,7.517,0,0,0-.252-1.119,2.639,2.639,0,0,1,.636-1.308h.034q.207.76.67,3.905a3.008,3.008,0,0,0,.843,1.647l0,0a1.151,1.151,0,0,0,.946.194,2.188,2.188,0,0,0,1.681-1.252,6.076,6.076,0,0,0,.528-1.228q1.691-3.333,3.649-3.332,1.872,0,2.427,3.3m-.845,1.853q-.592-3.514-2.248-3.511a3.237,3.237,0,0,0-2.282,1.338v.032a9.921,9.921,0,0,0,4.53,2.181ZM77.2,14l1.47,1.086-.735,1.491h-.209l-.91-.5a13,13,0,0,1-1.338,4.168,9.232,9.232,0,0,1,1.129,4.606q-.055,1.361-.252,1.36H69.092l-.11-.188.778-1.6a8.482,8.482,0,0,0,2.063-1.054A9.153,9.153,0,0,0,74.5,20.735a14.059,14.059,0,0,0-3.16-2.382,14.487,14.487,0,0,0-2.28-1.129v.636l-.22.1q-2.59-.789-2.588-1.644a1.451,1.451,0,0,1-.022-.265,3.491,3.491,0,0,1,.5-1.776,31.828,31.828,0,0,1,6.459,3.444,13.119,13.119,0,0,1,1.963,2,11.972,11.972,0,0,0,.66-4.42l-.44-.416a.931.931,0,0,1-.317-.7,4.061,4.061,0,0,1,.767-2.073l.142.034a1.787,1.787,0,0,0-.067.427v.067q0,.559,1.3,1.371m-2.315,7.229h-.032q-.284.9-2.776,3.157l3.916-.022c.009-.125.011-.252.011-.384a4.715,4.715,0,0,0-1.119-2.752M70,12.168l.759-1-.088-.142a6.036,6.036,0,0,1-1.569.349.7.7,0,0,1-.175.024,1.332,1.332,0,0,1-1.239-.791,2.015,2.015,0,0,1,1.119-.582h.022a.517.517,0,0,1,.472.276l.142.022a1.9,1.9,0,0,0,.362-.791V9.328c-.058-.153-.246-.231-.56-.231q-2.279.582-2.28,2v.088a1.426,1.426,0,0,0,.494.834l-.55.207c-.138.241-.3.528-.472.856l.088.166A14.438,14.438,0,0,1,70,12.168m12.153.11-.877,2.138a115.909,115.909,0,0,1,1.207,11.813h.131a22.636,22.636,0,0,0,.735-3.267q-.087-2.37-1.054-10.683Zm13.071,3.565-1.843-1.175-.955,1.416,1.843,1.172Zm.767,6.843q0,1.768-2.248,2.985a5.851,5.851,0,0,1-2.379.526h-.034a1.69,1.69,0,0,1-1.754-.91,2.008,2.008,0,0,1-.11-.6v-.209q0-1.865,2.489-5.265a.344.344,0,0,1,.11-.032,5.872,5.872,0,0,1,2.983,1.438,2.978,2.978,0,0,1,.944,2.071m-.7.769A4.451,4.451,0,0,0,92.922,21a4.632,4.632,0,0,0-1.063-.276,5.964,5.964,0,0,0-1.36,2.765,1.326,1.326,0,0,0,1.457,1.2h.088a5.533,5.533,0,0,0,3.246-1.228m-3.4-7.6L90.06,14.679,89.105,16.1l1.832,1.172Zm12.274,1.185-1.832-1.175-.955,1.416,1.832,1.172Zm7.371-.638.756-1-.088-.142a5.973,5.973,0,0,1-1.569.351.692.692,0,0,1-.175.022,1.33,1.33,0,0,1-1.239-.789,2.03,2.03,0,0,1,1.119-.582h.022a.515.515,0,0,1,.472.274l.142.022a1.886,1.886,0,0,0,.362-.789V13.56c-.058-.153-.246-.231-.56-.231q-2.279.582-2.28,2v.086a1.414,1.414,0,0,0,.494.834l-.55.209q-.207.362-.47.856l.086.164a14.427,14.427,0,0,1,3.479-1.075m-.748,3.16-.733,1.405v.108a13.688,13.688,0,0,1,1.073,1.892,6.964,6.964,0,0,1,.407,1.718h-4.871a3.632,3.632,0,0,1-2.6-1.065,2.949,2.949,0,0,1-1.086-2.073l-.263-.086-.526,1.435q0,1.71,2.127,2.862a5.575,5.575,0,0,1-2.172,3.2,8.225,8.225,0,0,1-4.726,1.065H95.972v.405a19.264,19.264,0,0,0,5.429.791,4.793,4.793,0,0,0,2.479-1.832,8.183,8.183,0,0,0,1.228-3.369,10.183,10.183,0,0,0,1.558.209h4.9a4.842,4.842,0,0,0,.821-2.851,6.923,6.923,0,0,0-1.491-3.817ZM132.1,21.985a17.589,17.589,0,0,1-4.213-1.263,10.435,10.435,0,0,0-3.334-1.052h-.175a3.9,3.9,0,0,0-3.028,1.931,12.208,12.208,0,0,0-1.47,3.015.03.03,0,0,1,.034.032c.2-.022.457-.362.778-1.019q1.141-2.315,2.94-2.315a3.268,3.268,0,0,1,.877.11q.921.265,3.685,1.328a3.246,3.246,0,0,1-.8.384q-2.489,1.513-7.3,1.513a.071.071,0,0,1-.032.034h-.308a2.265,2.265,0,0,1-2.216-1.239,12.2,12.2,0,0,1-.821-4.108q-.22-2.88-.429-7.114h-.22L115.209,14q.857,8.719,1.121,9.739a3.274,3.274,0,0,0,1.315,1.843,3.574,3.574,0,0,0,1.728.608l.037.039h1.351l.022-.022a15.283,15.283,0,0,0,5-.856,11.161,11.161,0,0,1,4.871-1.722,14.676,14.676,0,0,0,2.358.209c.241,0,.5-.539.767-1.612a14.549,14.549,0,0,1-1.677-.241m-8.1,7.414,1.832,1.175.955-1.416-1.832-1.172Z" transform="translate(45.844 10.509)" fill="#b79b66"/>
      <path id="Path_3918" data-name="Path 3918" d="M122.2,40.022c-1.791.293-2.522.685-2.722,2.017-.136.907,1.448,2.586,2.647,2.584a2.687,2.687,0,0,0,2.257-.6c.756-.733,1.853-2.42,1.683-3.106a.99.99,0,0,0-.325-.463,1.853,1.853,0,0,0-.909-.427,7.853,7.853,0,0,0-2.629,0" transform="translate(138.017 46.109)" fill="#00413b"/>
    </g>
  </g>
</svg>
