<svg id="talking" xmlns="http://www.w3.org/2000/svg" width="61.716" height="52.494" viewBox="0 0 61.716 52.494">
  <path id="Path_5961" data-name="Path 5961" d="M59.383,7.54H25.6a3.5,3.5,0,0,0-3.5,3.5V24.182H4.7a3.506,3.506,0,0,0-3.5,3.5v22.2a3.506,3.506,0,0,0,3.5,3.5h6.675l-.165,5.458a1.189,1.189,0,0,0,.577,1.059,1.375,1.375,0,0,0,1.21,0l11.782-6.544H38.76a3.5,3.5,0,0,0,3.5-3.5V39.409H44.28L53.6,45.98a1.375,1.375,0,0,0,1.244.082A1.182,1.182,0,0,0,55.533,45V39.409h3.884a3.5,3.5,0,0,0,3.5-3.5V11.039a3.5,3.5,0,0,0-3.533-3.5ZM39.853,49.878a1.093,1.093,0,0,1-1.093,1.093H24.435a1.23,1.23,0,0,0-.584.151L13.656,56.786l.137-4.578a1.182,1.182,0,0,0-.357-.873,1.2,1.2,0,0,0-.866-.364H4.7a1.093,1.093,0,0,1-1.093-1.093v-22.2A1.1,1.1,0,0,1,4.7,26.588H22.1V35.91a3.5,3.5,0,0,0,3.5,3.5H39.853ZM60.476,35.91A1.093,1.093,0,0,1,59.383,37H54.3a1.2,1.2,0,0,0-1.2,1.2v4.468L45.36,37.223a1.2,1.2,0,0,0-.687-.22H25.6A1.093,1.093,0,0,1,24.5,35.91V11.039A1.093,1.093,0,0,1,25.6,9.918H59.383a1.093,1.093,0,0,1,1.093,1.093Z" transform="translate(-1.2 -7.54)" fill="#b79b66"/>
  <path id="Path_5962" data-name="Path 5962" d="M46.635,27.37a2.5,2.5,0,1,0,2.5,2.5A2.5,2.5,0,0,0,46.635,27.37Z" transform="translate(-14.622 -13.738)" fill="#b79b66"/>
  <path id="Path_5963" data-name="Path 5963" d="M61.122,27.37a2.488,2.488,0,1,0,1.762.731,2.5,2.5,0,0,0-1.762-.731Z" transform="translate(-19.149 -13.738)" fill="#b79b66"/>
  <path id="Path_5964" data-name="Path 5964" d="M75.612,27.37a2.488,2.488,0,1,0,1.762.731,2.5,2.5,0,0,0-1.762-.731Z" transform="translate(-23.678 -13.738)" fill="#b79b66"/>
</svg>
